<?xml version="1.0" standalone="no"?>
<!DOCTYPE svg PUBLIC "-//W3C//DTD SVG 20010904//EN"
 "http://www.w3.org/TR/2001/REC-SVG-20010904/DTD/svg10.dtd">
<svg version="1.0" xmlns="http://www.w3.org/2000/svg"
 width="512.000000pt" height="512.000000pt" viewBox="0 0 512.000000 512.000000"
 preserveAspectRatio="xMidYMid meet">
<metadata>
Created by potrace 1.14, written by Peter Selinger 2001-2017
</metadata>
<g transform="translate(0.000000,512.000000) scale(0.100000,-0.100000)"
fill="#000000" stroke="none">
<path d="M2379 5116 c-2 -2 -35 -6 -74 -10 -38 -3 -97 -10 -130 -16 -33 -6
-76 -13 -95 -16 -128 -20 -452 -122 -565 -177 -16 -8 -48 -23 -70 -33 -22 -10
-87 -44 -145 -77 -528 -297 -943 -789 -1148 -1357 -32 -90 -78 -246 -86 -293
-3 -15 -7 -35 -10 -45 -3 -9 -7 -34 -11 -56 -3 -21 -7 -41 -9 -45 -4 -6 -12
-68 -26 -201 -8 -81 -5 -463 5 -520 3 -19 12 -75 20 -125 29 -174 78 -357 142
-520 35 -89 122 -270 159 -332 10 -17 36 -60 57 -95 178 -297 499 -616 820
-814 423 -262 877 -385 1387 -378 118 2 226 5 240 8 14 2 45 7 70 10 25 4 92
16 150 27 58 12 116 23 130 26 38 7 316 101 369 124 318 143 574 317 809 549
378 376 642 891 717 1400 3 19 7 44 10 55 11 54 19 184 20 305 0 131 -1 136
-30 189 -101 183 -337 219 -483 73 -72 -72 -86 -123 -97 -337 -3 -60 -7 -121
-9 -135 -3 -14 -7 -41 -10 -60 -10 -59 -16 -93 -28 -135 -5 -22 -12 -50 -14
-63 -9 -48 -85 -246 -130 -339 -189 -389 -520 -716 -916 -906 -164 -79 -324
-127 -568 -172 -60 -11 -422 -15 -490 -5 -36 5 -81 12 -100 15 -232 32 -526
147 -745 289 -422 276 -730 718 -839 1206 -35 161 -41 219 -41 430 0 207 4
249 35 399 143 700 676 1276 1369 1477 46 13 95 26 110 29 180 35 218 39 406
39 225 1 279 -3 426 -34 205 -43 449 -139 616 -243 80 -50 137 -66 212 -62
201 11 333 218 261 408 -38 101 -114 160 -370 288 -65 32 -122 59 -125 59 -4
0 -21 6 -38 14 -134 60 -431 140 -602 161 -27 4 -61 9 -75 11 -28 6 -456 15
-461 10z"/>
<path d="M2488 3295 c-2 -1 -23 -5 -49 -8 -134 -16 -286 -95 -399 -207 -137
-136 -209 -304 -215 -499 -8 -302 164 -574 440 -697 237 -104 533 -69 740 89
75 57 113 98 167 178 157 237 166 537 23 782 -99 168 -265 293 -456 342 -54
14 -241 29 -251 20z"/>
</g>
</svg>
