<?xml version="1.0" standalone="no"?>
<!DOCTYPE svg PUBLIC "-//W3C//DTD SVG 20010904//EN"
 "http://www.w3.org/TR/2001/REC-SVG-20010904/DTD/svg10.dtd">
<svg version="1.0" xmlns="http://www.w3.org/2000/svg"
 width="500.000000pt" height="500.000000pt" viewBox="0 0 500.000000 500.000000"
 preserveAspectRatio="xMidYMid meet">
<metadata>
Created by potrace 1.14, written by Peter Selinger 2001-2017
</metadata>
<g transform="translate(0.000000,500.000000) scale(0.100000,-0.100000)"
fill="#000000" stroke="none">
<path d="M2465 4880 c-109 -17 -192 -105 -200 -213 -5 -68 8 -117 48 -169 50
-65 104 -88 222 -93 98 -4 209 -13 243 -20 9 -1 37 -6 62 -10 25 -4 88 -18
140 -32 532 -139 977 -500 1225 -994 66 -130 148 -368 160 -462 2 -16 6 -40
10 -55 12 -57 15 -79 21 -152 13 -139 8 -332 -12 -465 -35 -243 -156 -559
-292 -761 -221 -330 -544 -591 -899 -728 -100 -39 -293 -92 -368 -102 -27 -3
-53 -8 -56 -10 -11 -6 -173 -17 -264 -17 -93 -1 -241 9 -285 18 -24 5 -51 10
-107 20 -192 33 -493 159 -668 279 -424 290 -709 713 -810 1204 -87 418 -27
866 166 1242 53 103 53 103 118 199 91 136 218 280 337 382 53 46 75 63 173
135 78 56 114 122 113 206 -1 188 -203 297 -367 197 -211 -128 -486 -402 -654
-653 -192 -286 -335 -654 -376 -966 -4 -30 -9 -64 -11 -75 -5 -26 -17 -217
-17 -280 -1 -136 16 -307 44 -457 103 -557 436 -1097 884 -1435 17 -13 43 -33
60 -45 130 -99 402 -244 575 -306 124 -45 282 -88 395 -106 55 -10 111 -19
124 -21 169 -29 543 -18 728 20 145 29 200 44 328 86 262 87 528 232 740 404
99 80 250 225 305 294 19 23 43 53 54 64 48 56 129 172 192 277 149 248 261
550 304 825 6 39 13 81 15 95 6 32 18 249 18 315 0 163 -14 285 -59 521 -2 11
-17 65 -33 120 -117 394 -317 735 -597 1019 -279 283 -651 506 -1019 611 -33
9 -62 17 -65 17 -3 0 -25 6 -50 13 -48 14 -70 18 -170 34 -36 6 -76 13 -90 15
-14 3 -74 7 -135 11 -60 3 -121 7 -135 8 -14 1 -43 -1 -65 -4z"/>
<path d="M1686 3274 c-95 -23 -166 -63 -237 -134 -137 -136 -189 -322 -154
-549 36 -238 217 -401 445 -401 106 0 178 25 278 97 23 16 23 16 17 -18 -31
-186 -157 -314 -340 -345 -24 -4 -110 -12 -146 -13 l-26 -1 0 -130 -1 -130 72
0 c82 0 225 28 310 60 148 56 290 190 364 343 72 148 93 265 96 517 3 275 -56
456 -190 585 -121 116 -310 162 -488 119z m218 -267 c95 -47 136 -144 140
-334 l3 -114 -38 -43 c-47 -54 -93 -76 -165 -81 -70 -5 -123 15 -165 63 -55
62 -74 124 -73 237 1 88 16 140 57 201 59 88 152 115 241 71z"/>
<path d="M2545 3143 l0 -128 397 -5 397 -5 -23 -50 c-78 -164 -126 -266 -126
-269 0 -2 -22 -50 -49 -107 -26 -57 -126 -273 -222 -479 -95 -206 -179 -386
-186 -400 l-13 -25 167 -3 c92 -1 170 1 173 5 7 8 30 61 182 413 44 102 88
203 98 225 10 22 66 150 125 285 58 134 112 258 120 275 89 198 88 196 91 298
l2 97 -567 0 -567 0 1 -127z"/>
</g>
</svg>
